<svg width="274" height="51" viewBox="0 0 274 51" fill="none" xmlns="http://www.w3.org/2000/svg">
<path d="M9.2666 44.3906C3.13053 44.3906 0.0625 39.9961 0.0625 31.207V12.6768C0.0625 4.65267 3.57812 0.640625 10.6094 0.640625C13.5065 0.640625 15.7282 1.22656 17.2744 2.39844C18.8206 3.55404 19.8867 5.24674 20.4727 7.47656C21.0586 9.70638 21.3516 12.4245 21.3516 15.6309H12.9531V11.8223C12.9531 10.8945 12.8229 10.1214 12.5625 9.50293C12.3184 8.86816 11.7975 8.55078 11 8.55078C10.0072 8.55078 9.34798 8.88444 9.02246 9.55176C8.71322 10.2191 8.55859 10.9515 8.55859 11.749V32.5742C8.55859 33.7298 8.70508 34.6738 8.99805 35.4062C9.30729 36.1224 9.90137 36.4805 10.7803 36.4805C11.6917 36.4805 12.2939 36.1224 12.5869 35.4062C12.8962 34.6738 13.0508 33.7135 13.0508 32.5254V26.3975H10.7559V18.9756H21.2539V44H17.8115L16.3467 40.3867C14.8493 43.056 12.4893 44.3906 9.2666 44.3906ZM24.5254 44V7.37891H33.4121V11.4561C33.8353 10.04 34.584 8.93327 35.6582 8.13574C36.7324 7.33822 38.0833 6.93945 39.7109 6.93945V14.2393C38.9948 14.2393 38.1403 14.3206 37.1475 14.4834C36.1546 14.6299 35.2839 14.8415 34.5352 15.1182C33.7865 15.3786 33.4121 15.6715 33.4121 15.9971V44H24.5254ZM48.5244 44.3906C46.4899 44.3906 44.9355 43.9186 43.8613 42.9746C42.8034 42.0306 42.0791 40.7367 41.6885 39.0928C41.2979 37.4489 41.1025 35.5853 41.1025 33.502C41.1025 31.2721 41.3223 29.4492 41.7617 28.0332C42.2012 26.6009 42.9499 25.429 44.0078 24.5176C45.082 23.6061 46.555 22.833 48.4268 22.1982L53.8467 20.3428V16.583C53.8467 14.6136 53.2038 13.6289 51.918 13.6289C50.7461 13.6289 50.1602 14.4264 50.1602 16.0215V18.2188H41.6641C41.6478 18.0885 41.6396 17.9258 41.6396 17.7305C41.6396 17.5189 41.6396 17.2829 41.6396 17.0225C41.6396 13.3766 42.4941 10.7969 44.2031 9.2832C45.9284 7.75326 48.6546 6.98828 52.3818 6.98828C54.335 6.98828 56.0846 7.33822 57.6309 8.03809C59.1771 8.72168 60.3978 9.73893 61.293 11.0898C62.2044 12.4408 62.6602 14.109 62.6602 16.0947V44H53.9688V39.6543C53.5456 41.1842 52.8457 42.3561 51.8691 43.1699C50.8926 43.9837 49.7777 44.3906 48.5244 44.3906ZM51.9668 37.6035C52.6829 37.6035 53.1712 37.3024 53.4316 36.7002C53.6921 36.098 53.8223 35.4469 53.8223 34.7471V24.542C52.6178 25.0303 51.682 25.6488 51.0146 26.3975C50.3473 27.1299 50.0137 28.2122 50.0137 29.6445V34.3564C50.0137 36.5212 50.6647 37.6035 51.9668 37.6035ZM66.0293 44V7.37891H74.7695V12.042C75.0951 10.6423 75.6973 9.4541 76.5762 8.47754C77.4714 7.4847 78.7083 6.98828 80.2871 6.98828C82.8262 6.98828 84.6654 7.76953 85.8047 9.33203C86.9603 10.8945 87.5381 13.0348 87.5381 15.7529V44H78.9199V16.6562C78.9199 15.9401 78.7734 15.2809 78.4805 14.6787C78.1875 14.0602 77.6829 13.751 76.9668 13.751C76.2995 13.751 75.8031 13.987 75.4775 14.459C75.1683 14.9147 74.973 15.4925 74.8916 16.1924C74.8102 16.876 74.7695 17.5596 74.7695 18.2432V44H66.0293ZM98.1826 44.3906C96.4899 44.3906 95.1471 44.0814 94.1543 43.4629C93.1615 42.8444 92.4209 41.9899 91.9326 40.8994C91.4443 39.8089 91.1188 38.5312 90.9561 37.0664C90.8096 35.6016 90.7363 34.0309 90.7363 32.3545V16.4365C90.7363 13.6208 91.2327 11.3421 92.2256 9.60059C93.2347 7.85905 94.9355 6.98828 97.3281 6.98828C99.1022 6.98828 100.461 7.37077 101.405 8.13574C102.366 8.88444 103.106 9.93424 103.627 11.2852V1.03125H112.514V44H103.627V40.1182C103.139 41.4365 102.488 42.4782 101.674 43.2432C100.876 44.0081 99.7126 44.3906 98.1826 44.3906ZM101.527 37.5547C102.357 37.5547 102.911 37.221 103.188 36.5537C103.48 35.8864 103.627 34.6901 103.627 32.9648V17.5596C103.627 16.6969 103.497 15.8506 103.236 15.0205C102.992 14.1742 102.439 13.751 101.576 13.751C100.632 13.751 100.038 14.1497 99.7939 14.9473C99.5498 15.7448 99.4277 16.6156 99.4277 17.5596V32.9648C99.4277 36.0247 100.128 37.5547 101.527 37.5547Z" fill="#F20574"/>
<path d="M127.748 44V1.03125H139.101C141.477 1.03125 143.357 1.56022 144.74 2.61816C146.14 3.67611 147.141 5.18164 147.743 7.13477C148.345 9.08789 148.646 11.4154 148.646 14.1172C148.646 16.7214 148.394 18.9919 147.89 20.9287C147.385 22.8493 146.482 24.3385 145.18 25.3965C143.894 26.4544 142.063 26.9834 139.687 26.9834H136.195V44H127.748ZM136.195 19.2686H136.684C138.279 19.2686 139.255 18.821 139.613 17.9258C139.971 17.0306 140.15 15.7122 140.15 13.9707C140.15 12.3431 139.971 11.0898 139.613 10.2109C139.271 9.31576 138.45 8.86816 137.147 8.86816H136.195V19.2686ZM151.234 44V1.03125H160.121V44H151.234ZM170.302 44.3906C168.267 44.3906 166.713 43.9186 165.639 42.9746C164.581 42.0306 163.856 40.7367 163.466 39.0928C163.075 37.4489 162.88 35.5853 162.88 33.502C162.88 31.2721 163.1 29.4492 163.539 28.0332C163.979 26.6009 164.727 25.429 165.785 24.5176C166.859 23.6061 168.332 22.833 170.204 22.1982L175.624 20.3428V16.583C175.624 14.6136 174.981 13.6289 173.695 13.6289C172.523 13.6289 171.938 14.4264 171.938 16.0215V18.2188H163.441C163.425 18.0885 163.417 17.9258 163.417 17.7305C163.417 17.5189 163.417 17.2829 163.417 17.0225C163.417 13.3766 164.271 10.7969 165.98 9.2832C167.706 7.75326 170.432 6.98828 174.159 6.98828C176.112 6.98828 177.862 7.33822 179.408 8.03809C180.954 8.72168 182.175 9.73893 183.07 11.0898C183.982 12.4408 184.438 14.109 184.438 16.0947V44H175.746V39.6543C175.323 41.1842 174.623 42.3561 173.646 43.1699C172.67 43.9837 171.555 44.3906 170.302 44.3906ZM173.744 37.6035C174.46 37.6035 174.949 37.3024 175.209 36.7002C175.469 36.098 175.6 35.4469 175.6 34.7471V24.542C174.395 25.0303 173.459 25.6488 172.792 26.3975C172.125 27.1299 171.791 28.2122 171.791 29.6445V34.3564C171.791 36.5212 172.442 37.6035 173.744 37.6035ZM187.099 50.1035V44.5615H191.298C191.933 44.5615 192.25 44.3418 192.25 43.9023C192.25 43.6745 192.226 43.4385 192.177 43.1943L186.439 7.37891H194.813L197.255 34.332L200.136 7.37891H208.559L201.771 45.9043C201.527 47.2878 201.055 48.3294 200.355 49.0293C199.672 49.7454 198.541 50.1035 196.962 50.1035H187.099ZM221.107 44.3906C218.503 44.3906 216.428 43.9023 214.882 42.9258C213.336 41.9492 212.229 40.5413 211.562 38.7021C210.894 36.863 210.561 34.6494 210.561 32.0615V17.3398C210.561 13.9382 211.537 11.3665 213.49 9.625C215.443 7.86719 218.129 6.98828 221.547 6.98828C228.578 6.98828 232.094 10.4388 232.094 17.3398V20.001C232.094 23.2236 232.061 25.3883 231.996 26.4951H219.301V33.5752C219.301 34.2262 219.341 34.8691 219.423 35.5039C219.504 36.1224 219.683 36.6351 219.96 37.042C220.253 37.4489 220.717 37.6523 221.352 37.6523C222.263 37.6523 222.833 37.2617 223.061 36.4805C223.288 35.6829 223.402 34.6494 223.402 33.3799V29.8643H232.094V31.9395C232.094 34.6738 231.752 36.9688 231.068 38.8242C230.401 40.6634 229.262 42.055 227.65 42.999C226.055 43.9268 223.874 44.3906 221.107 44.3906ZM219.252 22.1494H223.402V17.2178C223.402 15.8994 223.24 14.9554 222.914 14.3857C222.589 13.7998 222.1 13.5068 221.449 13.5068C220.749 13.5068 220.204 13.7835 219.813 14.3369C219.439 14.8903 219.252 15.8506 219.252 17.2178V22.1494ZM235.268 44V7.37891H244.154V11.4561C244.577 10.04 245.326 8.93327 246.4 8.13574C247.475 7.33822 248.826 6.93945 250.453 6.93945V14.2393C249.737 14.2393 248.882 14.3206 247.89 14.4834C246.897 14.6299 246.026 14.8415 245.277 15.1182C244.529 15.3786 244.154 15.6715 244.154 15.9971V44H235.268ZM262.636 44.3906C255.409 44.3906 251.796 40.7285 251.796 33.4043V30.499H260.585V34.7959C260.585 35.626 260.748 36.277 261.073 36.749C261.399 37.221 261.92 37.457 262.636 37.457C263.905 37.457 264.54 36.5049 264.54 34.6006C264.54 33.0055 264.206 31.8174 263.539 31.0361C262.872 30.2386 262.058 29.4736 261.098 28.7412L256.435 25.1523C254.97 24.013 253.855 22.8086 253.09 21.5391C252.325 20.2695 251.942 18.5036 251.942 16.2412C251.942 14.1416 252.439 12.4082 253.432 11.041C254.441 9.67383 255.767 8.65658 257.411 7.98926C259.071 7.32194 260.862 6.98828 262.782 6.98828C269.879 6.98828 273.427 10.5283 273.427 17.6084V18.292H264.394V16.9004C264.394 16.168 264.263 15.46 264.003 14.7764C263.759 14.0928 263.271 13.751 262.538 13.751C261.301 13.751 260.683 14.402 260.683 15.7041C260.683 17.0225 261.203 18.056 262.245 18.8047L267.665 22.7598C269.358 23.9805 270.774 25.429 271.913 27.1055C273.069 28.7819 273.646 31.0117 273.646 33.7949C273.646 37.2454 272.662 39.874 270.692 41.6807C268.739 43.4873 266.054 44.3906 262.636 44.3906Z" fill="#F2E52E"/>
</svg>
